<mxfile host="app.diagrams.net" modified="2021-05-01T13:38:18.673Z" agent="5.0 (Windows NT 10.0; Win64; x64) AppleWebKit/537.36 (KHTML, like Gecko) Chrome/90.0.4430.93 Safari/537.36" etag="UXxV1pFpHERB_eD3BunK" version="14.6.9" type="github">
  <diagram id="TJQkWGtB9goyB684P3je" name="Page-1">
    <mxGraphModel dx="513" dy="292" grid="1" gridSize="10" guides="1" tooltips="1" connect="1" arrows="1" fold="1" page="1" pageScale="1" pageWidth="850" pageHeight="1100" math="0" shadow="0">
      <root>
        <mxCell id="0" />
        <mxCell id="1" parent="0" />
        <mxCell id="9JV4Xlodb9oFjMbBDnVF-1" value="&lt;span style=&quot;font-size: 16px&quot;&gt;&lt;b&gt;A&lt;/b&gt;&lt;sub&gt;&lt;b&gt;1&lt;/b&gt;&lt;br&gt;&lt;/sub&gt;a&lt;sub&gt;1&lt;/sub&gt;= 250&lt;br&gt;&lt;/span&gt;" style="rounded=0;whiteSpace=wrap;html=1;fillColor=#e1d5e7;strokeColor=#9673a6;" vertex="1" parent="1">
          <mxGeometry x="160" y="80" width="120" height="80" as="geometry" />
        </mxCell>
        <mxCell id="9JV4Xlodb9oFjMbBDnVF-2" value="&lt;b style=&quot;font-size: 16px&quot;&gt;A&lt;/b&gt;&lt;sub&gt;&lt;b&gt;2&lt;/b&gt;&lt;br&gt;&lt;/sub&gt;&lt;span style=&quot;font-size: 16px&quot;&gt;a&lt;/span&gt;&lt;span style=&quot;font-size: 10px&quot;&gt;2&lt;/span&gt;&lt;span style=&quot;font-size: 16px&quot;&gt;= 160&lt;/span&gt;" style="rounded=0;whiteSpace=wrap;html=1;fillColor=#e1d5e7;strokeColor=#9673a6;" vertex="1" parent="1">
          <mxGeometry x="160" y="200" width="120" height="80" as="geometry" />
        </mxCell>
        <mxCell id="9JV4Xlodb9oFjMbBDnVF-3" value="&lt;b style=&quot;font-size: 16px&quot;&gt;A&lt;/b&gt;&lt;sub&gt;&lt;b&gt;3&lt;/b&gt;&lt;br&gt;&lt;/sub&gt;&lt;span style=&quot;font-size: 16px&quot;&gt;a&lt;/span&gt;&lt;sub&gt;3&lt;/sub&gt;&lt;span style=&quot;font-size: 16px&quot;&gt;= 210&lt;/span&gt;" style="rounded=0;whiteSpace=wrap;html=1;fillColor=#e1d5e7;strokeColor=#9673a6;" vertex="1" parent="1">
          <mxGeometry x="160" y="320" width="120" height="80" as="geometry" />
        </mxCell>
        <mxCell id="9JV4Xlodb9oFjMbBDnVF-4" value="&lt;b style=&quot;font-size: 16px&quot;&gt;B&lt;/b&gt;&lt;sub&gt;&lt;b&gt;1&lt;/b&gt;&lt;br&gt;&lt;/sub&gt;&lt;span style=&quot;font-size: 16px&quot;&gt;b&lt;/span&gt;&lt;sub&gt;1&lt;/sub&gt;&lt;span style=&quot;font-size: 16px&quot;&gt;= 100&lt;/span&gt;" style="rounded=0;whiteSpace=wrap;html=1;fillColor=#dae8fc;strokeColor=#6c8ebf;" vertex="1" parent="1">
          <mxGeometry x="360" y="10" width="120" height="80" as="geometry" />
        </mxCell>
        <mxCell id="9JV4Xlodb9oFjMbBDnVF-5" value="&lt;b style=&quot;font-size: 16px&quot;&gt;B&lt;/b&gt;&lt;sub&gt;&lt;b&gt;2&lt;/b&gt;&lt;br&gt;&lt;/sub&gt;&lt;span style=&quot;font-size: 16px&quot;&gt;b&lt;/span&gt;&lt;sub&gt;2&lt;/sub&gt;&lt;span style=&quot;font-size: 16px&quot;&gt;= 105&lt;/span&gt;" style="rounded=0;whiteSpace=wrap;html=1;fillColor=#dae8fc;strokeColor=#6c8ebf;" vertex="1" parent="1">
          <mxGeometry x="360" y="109" width="120" height="80" as="geometry" />
        </mxCell>
        <mxCell id="9JV4Xlodb9oFjMbBDnVF-6" value="&lt;b style=&quot;font-size: 16px&quot;&gt;B&lt;/b&gt;&lt;sub&gt;&lt;b&gt;3&lt;/b&gt;&lt;br&gt;&lt;/sub&gt;&lt;span style=&quot;font-size: 16px&quot;&gt;b&lt;/span&gt;&lt;sub&gt;3&lt;/sub&gt;&lt;span style=&quot;font-size: 16px&quot;&gt;= 110&lt;/span&gt;" style="rounded=0;whiteSpace=wrap;html=1;fillColor=#dae8fc;strokeColor=#6c8ebf;" vertex="1" parent="1">
          <mxGeometry x="360" y="210" width="120" height="80" as="geometry" />
        </mxCell>
        <mxCell id="9JV4Xlodb9oFjMbBDnVF-7" value="&lt;b style=&quot;font-size: 16px&quot;&gt;B&lt;/b&gt;&lt;sub&gt;&lt;b&gt;4&lt;/b&gt;&lt;br&gt;&lt;/sub&gt;&lt;span style=&quot;font-size: 16px&quot;&gt;b&lt;/span&gt;&lt;sub&gt;4&lt;/sub&gt;&lt;span style=&quot;font-size: 16px&quot;&gt;= 120&lt;/span&gt;" style="rounded=0;whiteSpace=wrap;html=1;fillColor=#dae8fc;strokeColor=#6c8ebf;" vertex="1" parent="1">
          <mxGeometry x="360" y="310" width="120" height="80" as="geometry" />
        </mxCell>
        <mxCell id="9JV4Xlodb9oFjMbBDnVF-8" value="&lt;b style=&quot;font-size: 16px&quot;&gt;B&lt;/b&gt;&lt;sub&gt;&lt;b&gt;5&lt;/b&gt;&lt;br&gt;&lt;/sub&gt;&lt;span style=&quot;font-size: 16px&quot;&gt;b&lt;/span&gt;&lt;sub&gt;5&lt;/sub&gt;&lt;span style=&quot;font-size: 16px&quot;&gt;= 150&lt;/span&gt;" style="rounded=0;whiteSpace=wrap;html=1;fillColor=#dae8fc;strokeColor=#6c8ebf;" vertex="1" parent="1">
          <mxGeometry x="360" y="413" width="120" height="80" as="geometry" />
        </mxCell>
      </root>
    </mxGraphModel>
  </diagram>
</mxfile>
